<svg width="16" height="16" viewBox="0 0 16 16" fill="none" xmlns="http://www.w3.org/2000/svg">
<path d="M4.46994 8.46942H6.03231V14.9677C6.03231 15.096 6.13521 15.2 6.2622 15.2H8.91132C9.03831 15.2 9.14121 15.096 9.14121 14.9677V8.50003H10.9373C11.0541 8.50003 11.1523 8.41148 11.1657 8.29431L11.4385 5.90198C11.446 5.83616 11.4253 5.77022 11.3817 5.72086C11.3381 5.67145 11.2757 5.64315 11.2101 5.64315H9.14127V4.14352C9.14127 3.69146 9.38217 3.46222 9.85741 3.46222C9.92514 3.46222 11.2101 3.46222 11.2101 3.46222C11.3371 3.46222 11.44 3.35823 11.44 3.22996V1.03397C11.44 0.905673 11.3371 0.801716 11.2101 0.801716H9.34587C9.33277 0.801072 9.3036 0.799988 9.26055 0.799988C8.93709 0.799988 7.81278 0.864137 6.92465 1.68959C5.94061 2.60432 6.0774 3.69954 6.11008 3.88944V5.64307H4.46988C4.34289 5.64307 4.23999 5.74702 4.23999 5.87532V8.23711C4.24005 8.36543 4.34295 8.46942 4.46994 8.46942Z" fill="#23283B"/>
<path d="M8.82865 15.2H6.25892C5.97779 15.2 5.74907 14.9712 5.74907 14.6901V8.73757H4.52035C4.23921 8.73757 4.0105 8.50882 4.0105 8.22766V5.95997C4.0105 5.67883 4.23924 5.45012 4.52035 5.45012H5.82453V4.07649C5.78144 3.79867 5.68349 2.6719 6.70726 1.72988C7.6452 0.867066 8.82744 0.799988 9.16741 0.799988C9.20946 0.799988 9.23947 0.800916 9.25674 0.801647H11.0586C11.3397 0.801647 11.5684 1.03036 11.5684 1.3115V3.41994C11.5684 3.70108 11.3397 3.92979 11.0586 3.92979H9.74642C9.40355 3.92979 9.33855 4.05889 9.33855 4.29711V5.45015H11.0586C11.2037 5.45015 11.3424 5.5123 11.4391 5.62067C11.5358 5.72909 11.5816 5.87405 11.565 6.01836L11.3004 8.31538C11.2708 8.57281 11.053 8.76695 10.7939 8.76695H9.33844V14.6901C9.3385 14.9712 9.10976 15.2 8.82865 15.2ZM6.32274 14.6263H8.76478V8.48014C8.76478 8.32171 8.89322 8.19329 9.05162 8.19329H10.737L10.9869 6.02392H9.05171C8.89331 6.02392 8.76486 5.89551 8.76486 5.73708V4.29719C8.76486 3.70797 9.13181 3.35618 9.74645 3.35618H10.9948V1.37537H9.2503C9.24557 1.37537 9.24085 1.37526 9.23612 1.37503C9.23174 1.37481 9.20774 1.37374 9.16744 1.37374C8.87995 1.37374 7.88086 1.42988 7.09573 2.15215C6.25569 2.92508 6.36377 3.83043 6.39401 4.0041C6.39682 4.02033 6.39823 4.03678 6.39823 4.05323V5.73699C6.39823 5.89542 6.26978 6.02384 6.11138 6.02384H4.58416V8.16387H6.03589C6.19429 8.16387 6.32274 8.29229 6.32274 8.45072V14.6263Z" fill="#23283B"/>
<path d="M6.90025 11.184C6.74185 11.184 6.6134 11.0556 6.6134 10.8972V10.7538C6.6134 10.5953 6.74185 10.4669 6.90025 10.4669C7.05865 10.4669 7.1871 10.5953 7.1871 10.7538V10.8972C7.18712 11.0556 7.05865 11.184 6.90025 11.184Z" fill="#23283B"/>
<path d="M6.90025 14.2821C6.74185 14.2821 6.6134 14.1536 6.6134 13.9952V11.8151C6.6134 11.6567 6.74185 11.5283 6.90025 11.5283C7.05865 11.5283 7.1871 11.6567 7.1871 11.8151V13.9952C7.18712 14.1536 7.05865 14.2821 6.90025 14.2821Z" fill="#23283B"/>
</svg>
