<svg width="16" height="16" viewBox="0 0 16 16" fill="none" xmlns="http://www.w3.org/2000/svg">
<path d="M10.9129 14.9305H5.08703C2.88169 14.9305 1.08752 13.1363 1.08752 10.931V5.06903C1.08752 2.86366 2.88169 1.06949 5.08703 1.06949H10.9129C13.1182 1.06949 14.9124 2.86366 14.9124 5.06903V10.931C14.9124 13.1363 13.1182 14.9305 10.9129 14.9305ZM5.08703 2.71309C3.78795 2.71309 2.7311 3.76994 2.7311 5.06903V10.931C2.7311 12.23 3.78795 13.2869 5.08703 13.2869H10.9129C12.212 13.2869 13.2688 12.23 13.2688 10.931V5.06903C13.2688 3.76994 12.212 2.71309 10.9129 2.71309H5.08703Z" fill="#23283B"/>
<path d="M7.99988 11.4291C6.109 11.4291 4.57068 9.89078 4.57068 7.99996C4.57068 6.10909 6.10903 4.57077 7.99988 4.57077C9.89074 4.57077 11.4291 6.10912 11.4291 7.99996C11.4291 9.89081 9.89076 11.4291 7.99988 11.4291ZM7.99988 6.17402C6.99307 6.17402 6.17394 6.99313 6.17394 7.99996C6.17394 9.0068 6.99305 9.82591 7.99988 9.82591C9.00672 9.82591 9.82583 9.0068 9.82583 7.99996C9.82583 6.99313 9.00669 6.17402 7.99988 6.17402Z" fill="#23283B"/>
<path d="M11.5099 5.09551C11.176 5.09551 10.9044 4.82393 10.9044 4.49009C10.9044 4.15625 11.176 3.88467 11.5098 3.88467C11.8437 3.88467 12.1152 4.15625 12.1152 4.49009C12.1152 4.82393 11.8437 5.09551 11.5099 5.09551Z" fill="#23283B"/>
<path d="M10.913 15.218H5.08712C2.72321 15.218 0.800049 13.2949 0.800049 10.9309V5.06903C0.800049 2.70508 2.72321 0.781921 5.08712 0.781921H10.913C13.2769 0.781921 15.2 2.70508 15.2 5.06903V10.931C15.2 13.2949 13.2769 15.218 10.913 15.218ZM5.08712 1.35705C3.04032 1.35705 1.37518 3.0222 1.37518 5.069V10.931C1.37518 12.9777 3.04032 14.6429 5.08712 14.6429H10.913C12.9597 14.6429 14.6249 12.9777 14.6249 10.9309V5.06903C14.6249 3.02223 12.9597 1.35708 10.913 1.35708H5.08712V1.35705ZM10.913 13.5744H5.08712C3.62947 13.5744 2.44362 12.3886 2.44362 10.931V5.06903C2.44362 3.61137 3.62947 2.42555 5.08712 2.42555H10.913C12.3706 2.42555 13.5564 3.6114 13.5564 5.06903V10.931C13.5564 12.3886 12.3706 13.5744 10.913 13.5744ZM5.08712 3.00066C3.94661 3.00066 3.01876 3.92852 3.01876 5.069V10.931C3.01876 12.0714 3.94661 12.9993 5.08712 12.9993H10.913C12.0535 12.9993 12.9813 12.0714 12.9813 10.931V5.06903C12.9813 3.92854 12.0535 3.00069 10.913 3.00069H5.08712V3.00066Z" fill="#23283B"/>
<path d="M7.99997 11.7167C5.95052 11.7167 4.2832 10.0494 4.2832 7.99997C4.2832 5.95052 5.95055 4.28317 7.99997 4.28317C10.0494 4.28317 11.7167 5.95052 11.7167 7.99997C11.7167 10.0494 10.0494 11.7167 7.99997 11.7167ZM7.99997 4.85833C6.26769 4.85833 4.85836 6.26766 4.85836 7.99997C4.85836 9.73224 6.26769 11.1416 7.99997 11.1416C9.73225 11.1416 11.1416 9.73224 11.1416 7.99997C11.1416 6.26766 9.73227 4.85833 7.99997 4.85833ZM7.99997 10.1135C6.83459 10.1135 5.88646 9.16534 5.88646 7.99997C5.88646 6.83459 6.83459 5.88646 7.99997 5.88646C9.16535 5.88646 10.1135 6.83459 10.1135 7.99997C10.1135 9.16534 9.16537 10.1135 7.99997 10.1135ZM7.99997 6.46159C7.15171 6.46159 6.46159 7.1517 6.46159 7.99997C6.46159 8.84823 7.15171 9.53834 7.99997 9.53834C8.84823 9.53834 9.53835 8.84823 9.53835 7.99997C9.53835 7.15167 8.84823 6.46159 7.99997 6.46159Z" fill="#23283B"/>
<path d="M11.51 5.38306C11.0176 5.38306 10.6169 4.98248 10.6169 4.49005C10.6169 3.99762 11.0176 3.59702 11.51 3.59702C12.0024 3.59702 12.403 3.99764 12.403 4.49005C12.403 4.98246 12.0024 5.38306 11.51 5.38306ZM11.51 4.17217C11.3347 4.17217 11.1921 4.31476 11.1921 4.49005C11.1921 4.66531 11.3347 4.8079 11.51 4.8079C11.6852 4.8079 11.8278 4.66531 11.8278 4.49005C11.8279 4.31479 11.6853 4.17217 11.51 4.17217Z" fill="#23283B"/>
<path d="M7.53983 14.4128H4.83664C4.67781 14.4128 4.54907 14.2841 4.54907 14.1253C4.54907 13.9664 4.67781 13.8377 4.83664 13.8377H7.53983C7.69865 13.8377 7.8274 13.9664 7.8274 14.1253C7.8274 14.2841 7.69865 14.4128 7.53983 14.4128Z" fill="#23283B"/>
<path d="M8.63261 14.4128H8.46005C8.30125 14.4128 8.17249 14.2841 8.17249 14.1253C8.17249 13.9664 8.30125 13.8377 8.46005 13.8377H8.63261C8.79141 13.8377 8.92017 13.9664 8.92017 14.1253C8.92017 14.2841 8.79143 14.4128 8.63261 14.4128Z" fill="#23283B"/>
</svg>
